G04*
G04 #@! TF.GenerationSoftware,Altium Limited,Altium Designer,21.9.1 (22)*
G04*
G04 Layer_Color=32768*
%FSLAX42Y42*%
%MOMM*%
G71*
G04*
G04 #@! TF.SameCoordinates,8665F69C-080D-4A0F-83C7-313B9D7BD581*
G04*
G04*
G04 #@! TF.FilePolarity,Positive*
G04*
G01*
G75*
%ADD12C,0.15*%
%ADD37C,0.10*%
%ADD39C,0.05*%
G36*
X8705Y5524D02*
X7569D01*
Y5733D01*
X7414D01*
Y6434D01*
X7569D01*
Y6642D01*
X8705D01*
Y6433D01*
X9243D01*
Y5734D01*
X8705D01*
Y5524D01*
D02*
G37*
G36*
X9593Y6265D02*
X9845Y5065D01*
X13365Y5806D01*
X13112Y7007D01*
X9593Y6265D01*
D02*
G37*
D12*
X9845Y5065D02*
X13365Y5806D01*
X13112Y7007D02*
X13365Y5806D01*
X9593Y6265D02*
X13112Y7007D01*
X7569Y5524D02*
X8705D01*
X7569D02*
Y5733D01*
X7414D02*
X7569D01*
X7414D02*
Y6434D01*
X7569D01*
Y6642D01*
X8705D01*
Y6433D02*
Y6642D01*
Y6433D02*
X9243D01*
Y5734D02*
Y6433D01*
X8705Y5734D02*
X9243D01*
X8705Y5524D02*
Y5734D01*
D37*
X9170Y5309D02*
X9270D01*
X9220Y5259D02*
Y5359D01*
D39*
X9455Y5216D02*
Y5401D01*
X8985D02*
X9455D01*
X8985Y5216D02*
Y5401D01*
Y5216D02*
X9455D01*
X4770Y5956D02*
X5005Y7074D01*
X4770Y5956D02*
X7096Y5466D01*
X7331Y6584D01*
X5005Y7074D02*
X7331Y6584D01*
M02*
