G04*
G04 #@! TF.GenerationSoftware,Altium Limited,Altium Designer,21.9.2 (33)*
G04*
G04 Layer_Color=32896*
%FSLAX42Y42*%
%MOMM*%
G71*
G04*
G04 #@! TF.SameCoordinates,428D7D34-D8A8-4527-A64C-9C8BA80B7E4E*
G04*
G04*
G04 #@! TF.FilePolarity,Positive*
G04*
G01*
G75*
%ADD13C,0.25*%
D13*
X12126Y5726D02*
X13276D01*
X12126Y6876D02*
X13276D01*
Y5726D02*
Y6876D01*
X12126Y5726D02*
Y6876D01*
X5326Y5726D02*
X6476D01*
X5326Y6876D02*
X6476D01*
Y5726D02*
Y6876D01*
X5326Y5726D02*
Y6876D01*
X10226Y5326D02*
X11376D01*
X10226Y6476D02*
X11376D01*
Y5326D02*
Y6476D01*
X10226Y5326D02*
Y6476D01*
X7226Y5326D02*
X8376D01*
X7226Y6476D02*
X8376D01*
Y5326D02*
Y6476D01*
X7226Y5326D02*
Y6476D01*
X9903Y6190D02*
X9920Y6207D01*
X9953D01*
X9969Y6190D01*
Y6124D01*
X9953Y6107D01*
X9920D01*
X9903Y6124D01*
Y6157D01*
X9936D01*
X9870Y6174D02*
Y6107D01*
Y6140D01*
X9853Y6157D01*
X9836Y6174D01*
X9820D01*
X9720Y6107D02*
X9753D01*
X9770Y6124D01*
Y6157D01*
X9753Y6174D01*
X9720D01*
X9703Y6157D01*
Y6140D01*
X9770D01*
X9636Y6074D02*
X9620D01*
X9603Y6090D01*
Y6174D01*
X9653D01*
X9670Y6157D01*
Y6124D01*
X9653Y6107D01*
X9603D01*
X9553D02*
X9520D01*
X9503Y6124D01*
Y6157D01*
X9520Y6174D01*
X9553D01*
X9570Y6157D01*
Y6124D01*
X9553Y6107D01*
X9470Y6174D02*
Y6107D01*
Y6140D01*
X9453Y6157D01*
X9436Y6174D01*
X9420D01*
X9270Y6207D02*
Y6107D01*
Y6157D01*
X9203D01*
Y6207D01*
Y6107D01*
X9120D02*
X9153D01*
X9170Y6124D01*
Y6157D01*
X9153Y6174D01*
X9120D01*
X9103Y6157D01*
Y6140D01*
X9170D01*
X9070Y6174D02*
Y6107D01*
Y6140D01*
X9053Y6157D01*
X9036Y6174D01*
X9020D01*
X8970Y6107D02*
Y6174D01*
X8953D01*
X8936Y6157D01*
Y6107D01*
Y6157D01*
X8920Y6174D01*
X8903Y6157D01*
Y6107D01*
X8853Y6174D02*
X8820D01*
X8803Y6157D01*
Y6107D01*
X8853D01*
X8870Y6124D01*
X8853Y6140D01*
X8803D01*
X8770Y6107D02*
Y6174D01*
X8720D01*
X8703Y6157D01*
Y6107D01*
X8670D02*
X8637D01*
X8653D01*
Y6174D01*
X8670D01*
X9969Y5976D02*
X9953Y5993D01*
X9920D01*
X9903Y5976D01*
Y5909D01*
X9920Y5893D01*
X9953D01*
X9969Y5909D01*
Y5976D01*
X9870Y5993D02*
X9803D01*
Y5976D01*
X9870Y5909D01*
Y5893D01*
X9770D02*
Y5909D01*
X9753D01*
Y5893D01*
X9770D01*
X9686D02*
X9653D01*
X9670D01*
Y5993D01*
X9686Y5976D01*
X9536Y5893D02*
X9603D01*
X9536Y5959D01*
Y5976D01*
X9553Y5993D01*
X9586D01*
X9603Y5976D01*
X9503Y5893D02*
Y5909D01*
X9486D01*
Y5893D01*
X9503D01*
X9353D02*
X9420D01*
X9353Y5959D01*
Y5976D01*
X9370Y5993D01*
X9403D01*
X9420Y5976D01*
X9320D02*
X9303Y5993D01*
X9270D01*
X9253Y5976D01*
Y5909D01*
X9270Y5893D01*
X9303D01*
X9320Y5909D01*
Y5976D01*
X9153Y5893D02*
X9220D01*
X9153Y5959D01*
Y5976D01*
X9170Y5993D01*
X9203D01*
X9220Y5976D01*
X9120Y5893D02*
X9086D01*
X9103D01*
Y5993D01*
X9120Y5976D01*
X10973Y6553D02*
Y6401D01*
X10897D01*
X10871Y6426D01*
Y6452D01*
X10897Y6477D01*
X10973D01*
X10897D01*
X10871Y6502D01*
Y6528D01*
X10897Y6553D01*
X10973D01*
X10820Y6401D02*
Y6553D01*
X10719Y6401D01*
Y6553D01*
X10668D02*
Y6452D01*
X10617Y6401D01*
X10567Y6452D01*
Y6553D01*
X10363D02*
Y6401D01*
X10287D01*
X10262Y6426D01*
Y6452D01*
X10287Y6477D01*
X10363D01*
X10287D01*
X10262Y6502D01*
Y6528D01*
X10287Y6553D01*
X10363D01*
X10186Y6502D02*
X10135D01*
X10109Y6477D01*
Y6401D01*
X10186D01*
X10211Y6426D01*
X10186Y6452D01*
X10109D01*
X10033Y6528D02*
Y6502D01*
X10059D01*
X10008D01*
X10033D01*
Y6426D01*
X10008Y6401D01*
X9906Y6528D02*
Y6502D01*
X9932D01*
X9881D01*
X9906D01*
Y6426D01*
X9881Y6401D01*
X9729D02*
X9779D01*
X9805Y6426D01*
Y6477D01*
X9779Y6502D01*
X9729D01*
X9703Y6477D01*
Y6452D01*
X9805D01*
X9652Y6502D02*
Y6401D01*
Y6452D01*
X9627Y6477D01*
X9602Y6502D01*
X9576D01*
X9500D02*
Y6426D01*
X9475Y6401D01*
X9399D01*
Y6375D01*
X9424Y6350D01*
X9449D01*
X9399Y6401D02*
Y6502D01*
X9195Y6401D02*
Y6553D01*
X9119D01*
X9094Y6528D01*
Y6477D01*
X9119Y6452D01*
X9195D01*
X9018Y6502D02*
X8967D01*
X8941Y6477D01*
Y6401D01*
X9018D01*
X9043Y6426D01*
X9018Y6452D01*
X8941D01*
X8789Y6502D02*
X8865D01*
X8891Y6477D01*
Y6426D01*
X8865Y6401D01*
X8789D01*
X8738D02*
Y6553D01*
Y6452D02*
X8662Y6502D01*
X8738Y6452D02*
X8662Y6401D01*
X8434Y6502D02*
X8383Y6401D01*
X8332Y6502D01*
X8281Y6528D02*
X8256Y6553D01*
X8205D01*
X8180Y6528D01*
Y6426D01*
X8205Y6401D01*
X8256D01*
X8281Y6426D01*
Y6528D01*
X8129Y6401D02*
Y6426D01*
X8104D01*
Y6401D01*
X8129D01*
X7900D02*
X8002D01*
X7900Y6502D01*
Y6528D01*
X7926Y6553D01*
X7977D01*
X8002Y6528D01*
X7850Y6401D02*
Y6426D01*
X7824D01*
Y6401D01*
X7850D01*
X7723Y6528D02*
X7697Y6553D01*
X7646D01*
X7621Y6528D01*
Y6426D01*
X7646Y6401D01*
X7697D01*
X7723Y6426D01*
Y6528D01*
M02*
