G04*
G04 #@! TF.GenerationSoftware,Altium Limited,Altium Designer,21.9.1 (22)*
G04*
G04 Layer_Color=65535*
%FSLAX42Y42*%
%MOMM*%
G71*
G04*
G04 #@! TF.SameCoordinates,8665F69C-080D-4A0F-83C7-313B9D7BD581*
G04*
G04*
G04 #@! TF.FilePolarity,Positive*
G04*
G01*
G75*
%ADD10C,0.20*%
%ADD11C,0.40*%
%ADD12C,0.15*%
%ADD13C,0.13*%
%ADD14C,0.08*%
%ADD15C,0.25*%
D10*
X9145Y5239D02*
X9295D01*
X9145Y5379D02*
X9295D01*
D11*
X8945Y5239D02*
Y5379D01*
D12*
X8740Y5762D02*
X8832D01*
X8740Y6016D02*
X8832D01*
X8740Y6270D02*
X8832D01*
X8740Y5897D02*
X8832D01*
X8740Y6151D02*
X8832D01*
X8740Y6405D02*
X8832D01*
X7582Y5537D02*
Y5722D01*
X8692Y5537D02*
Y6052D01*
X8730D01*
Y6115D01*
X8692D02*
X8730D01*
X8692D02*
Y6629D01*
X7582D02*
X8692D01*
X7582Y6444D02*
Y6629D01*
Y5537D02*
X8692D01*
D13*
X5582Y5811D02*
X5808Y6879D01*
X5582Y5811D02*
X6949Y5523D01*
X6959Y5568D01*
X7030Y5905D02*
X7094Y6209D01*
X7165Y6546D02*
X7174Y6591D01*
X5808Y6879D02*
X7174Y6591D01*
D14*
X11441Y5346D02*
X11506Y5447D01*
X11523Y5364D02*
X11423Y5429D01*
X11482Y5355D02*
X11465Y5438D01*
X11515Y5405D02*
X11432Y5388D01*
X9000Y5607D02*
X9085Y5692D01*
Y5607D02*
X9000Y5692D01*
X9042Y5607D02*
Y5692D01*
X9085Y5649D02*
X9000D01*
D15*
X8951Y5631D02*
Y5479D01*
X9027D01*
X9053Y5504D01*
Y5606D01*
X9027Y5631D01*
X8951D01*
X9103Y5479D02*
X9154D01*
X9129D01*
Y5631D01*
X9103Y5606D01*
X8585Y5448D02*
Y5321D01*
X8611Y5296D01*
X8661D01*
X8687Y5321D01*
Y5448D01*
X8814Y5296D02*
Y5448D01*
X8738Y5372D01*
X8839D01*
X5969Y7099D02*
X5918D01*
X5944D01*
Y6972D01*
X5918Y6947D01*
X5893D01*
X5867Y6972D01*
X6121Y6947D02*
X6020D01*
X6121Y7048D01*
Y7074D01*
X6096Y7099D01*
X6045D01*
X6020Y7074D01*
X7432Y6878D02*
Y6751D01*
X7457Y6726D01*
X7508D01*
X7534Y6751D01*
Y6878D01*
X7686Y6726D02*
X7584D01*
X7686Y6827D01*
Y6853D01*
X7661Y6878D01*
X7610D01*
X7584Y6853D01*
M02*
