G04*
G04 #@! TF.GenerationSoftware,Altium Limited,Altium Designer,21.9.1 (22)*
G04*
G04 Layer_Physical_Order=2*
G04 Layer_Color=16711680*
%FSLAX42Y42*%
%MOMM*%
G71*
G04*
G04 #@! TF.SameCoordinates,8665F69C-080D-4A0F-83C7-313B9D7BD581*
G04*
G04*
G04 #@! TF.FilePolarity,Positive*
G04*
G01*
G75*
%ADD15C,0.25*%
%ADD26C,3.00*%
%ADD27C,2.50*%
%ADD28C,5.00*%
%ADD29C,1.60*%
%ADD30C,2.59*%
%ADD31C,1.50*%
%ADD32C,5.00*%
%ADD33C,4.00*%
%ADD34C,2.00*%
D15*
X7801Y5901D02*
X7844D01*
X6515Y6172D02*
X6535D01*
X6974Y5734D02*
X6994D01*
D26*
X11889Y6301D02*
X12701D01*
X10897Y5309D02*
X11889Y6301D01*
X7328Y5601D02*
Y6182D01*
X7130Y6380D02*
X7328Y6182D01*
Y5601D02*
X7595Y5334D01*
X8039D01*
X8411Y5706D02*
X9915D01*
X8039Y5334D02*
X8411Y5706D01*
D27*
X9728Y5309D02*
X10897D01*
D28*
X6387Y6301D02*
X6515Y6172D01*
X5901Y6301D02*
X6387D01*
D29*
X10360Y6060D02*
D03*
X9915Y5706D02*
D03*
X11511Y5524D02*
D03*
X11302Y6518D02*
D03*
X10465Y5563D02*
D03*
D30*
X7130Y6380D02*
D03*
X6515Y6172D02*
D03*
X6994Y5734D02*
D03*
D31*
X9728Y5309D02*
D03*
D32*
X10801Y5901D02*
D03*
X12701Y6301D02*
D03*
X7801Y5901D02*
D03*
X5901Y6301D02*
D03*
D33*
X7844Y5901D02*
X8369Y6426D01*
X10541D01*
X10779Y5923D02*
Y6189D01*
X10541Y6426D02*
X10779Y6189D01*
D34*
Y5923D02*
X10801Y5901D01*
M02*
