G04*
G04 #@! TF.GenerationSoftware,Altium Limited,Altium Designer,21.9.1 (22)*
G04*
G04 Layer_Physical_Order=2*
G04 Layer_Color=16711680*
%FSLAX42Y42*%
%MOMM*%
G71*
G04*
G04 #@! TF.SameCoordinates,F8A71F8A-6355-44F6-9634-A5E8768D9E0F*
G04*
G04*
G04 #@! TF.FilePolarity,Positive*
G04*
G01*
G75*
%ADD13C,1.52*%
%ADD14C,8.00*%
G36*
X7663Y4182D02*
X9563Y3782D01*
X10289Y2669D01*
X10088Y1714D01*
X9969Y1649D01*
X9785Y1716D01*
X9647Y1764D01*
X9555Y1795D01*
X9427Y1836D01*
X9311Y1872D01*
X9154Y1919D01*
X9019Y1958D01*
X8909Y1987D01*
X8777Y2022D01*
X8659Y2051D01*
X8535Y2080D01*
X8344Y2124D01*
X8126Y2168D01*
X7907Y2207D01*
X7739Y2235D01*
X7561Y2261D01*
X7163Y2311D01*
X6882Y2336D01*
X6453Y2364D01*
X6069Y2374D01*
X5665Y2370D01*
X5324Y2354D01*
X4807Y2316D01*
X4404Y2266D01*
X3938Y2191D01*
X3521Y2108D01*
X3173Y2025D01*
X2899Y1953D01*
X2649Y1880D01*
X2416Y1804D01*
X2198Y1732D01*
X2056Y1681D01*
X1970Y1649D01*
X1850Y1714D01*
X1806Y1926D01*
X1650Y2669D01*
X2376Y3782D01*
X4276Y4182D01*
X4469Y4202D01*
X7469D01*
X7663Y4182D01*
D02*
G37*
%LPC*%
G36*
X6006Y3913D02*
X5933D01*
X5860Y3905D01*
X5789Y3888D01*
X5720Y3864D01*
X5654Y3833D01*
X5592Y3794D01*
X5535Y3748D01*
X5484Y3696D01*
X5438Y3639D01*
X5399Y3578D01*
X5368Y3512D01*
X5343Y3443D01*
X5327Y3372D01*
X5319Y3299D01*
Y3226D01*
X5327Y3153D01*
X5343Y3082D01*
X5368Y3013D01*
X5399Y2947D01*
X5438Y2885D01*
X5484Y2828D01*
X5535Y2777D01*
X5592Y2731D01*
X5654Y2692D01*
X5720Y2661D01*
X5789Y2636D01*
X5860Y2620D01*
X5933Y2612D01*
X6006D01*
X6079Y2620D01*
X6150Y2636D01*
X6219Y2661D01*
X6285Y2692D01*
X6346Y2731D01*
X6403Y2777D01*
X6455Y2828D01*
X6501Y2885D01*
X6540Y2947D01*
X6571Y3013D01*
X6595Y3082D01*
X6612Y3153D01*
X6620Y3226D01*
Y3299D01*
X6612Y3372D01*
X6595Y3443D01*
X6571Y3512D01*
X6540Y3578D01*
X6501Y3639D01*
X6455Y3696D01*
X6403Y3748D01*
X6346Y3794D01*
X6285Y3833D01*
X6219Y3864D01*
X6150Y3888D01*
X6079Y3905D01*
X6006Y3913D01*
D02*
G37*
G36*
X9912Y2023D02*
X9877D01*
X9842Y2014D01*
X9811Y1996D01*
X9786Y1971D01*
X9768Y1940D01*
X9759Y1905D01*
Y1870D01*
X9768Y1835D01*
X9786Y1804D01*
X9811Y1779D01*
X9842Y1761D01*
X9877Y1752D01*
X9912D01*
X9947Y1761D01*
X9978Y1779D01*
X10003Y1804D01*
X10021Y1835D01*
X10030Y1870D01*
Y1905D01*
X10021Y1940D01*
X10003Y1971D01*
X9978Y1996D01*
X9947Y2014D01*
X9912Y2023D01*
D02*
G37*
G36*
X2062D02*
X2027D01*
X1992Y2014D01*
X1961Y1996D01*
X1936Y1971D01*
X1918Y1940D01*
X1909Y1905D01*
Y1870D01*
X1918Y1835D01*
X1936Y1804D01*
X1961Y1779D01*
X1992Y1761D01*
X2027Y1752D01*
X2062D01*
X2097Y1761D01*
X2128Y1779D01*
X2153Y1804D01*
X2171Y1835D01*
X2180Y1870D01*
Y1905D01*
X2171Y1940D01*
X2153Y1971D01*
X2128Y1996D01*
X2097Y2014D01*
X2062Y2023D01*
D02*
G37*
%LPD*%
D13*
X5969Y3262D02*
D03*
X9894Y1887D02*
D03*
X2044D02*
D03*
D14*
X9369Y2862D02*
D03*
X7469Y3262D02*
D03*
X4469D02*
D03*
X2569Y2862D02*
D03*
M02*
