G04*
G04 #@! TF.GenerationSoftware,Altium Limited,Altium Designer,21.9.1 (22)*
G04*
G04 Layer_Color=65535*
%FSLAX42Y42*%
%MOMM*%
G71*
G04*
G04 #@! TF.SameCoordinates,F8A71F8A-6355-44F6-9634-A5E8768D9E0F*
G04*
G04*
G04 #@! TF.FilePolarity,Positive*
G04*
G01*
G75*
%ADD10C,0.25*%
D10*
X8102Y4018D02*
X8089Y4038D01*
X8056Y4045D01*
X8036Y4032D01*
X8023Y3967D01*
X8036Y3947D01*
X8068Y3940D01*
X8088Y3953D01*
X8095Y3985D01*
X8062Y3992D01*
X8131Y3995D02*
X8117Y3930D01*
X8124Y3962D01*
X8144Y3975D01*
X8163Y3988D01*
X8180Y3985D01*
X8264Y3899D02*
X8231Y3906D01*
X8218Y3925D01*
X8225Y3958D01*
X8245Y3971D01*
X8278Y3964D01*
X8290Y3944D01*
X8287Y3928D01*
X8222Y3942D01*
X8338Y3849D02*
X8355Y3846D01*
X8375Y3858D01*
X8392Y3940D01*
X8343Y3950D01*
X8323Y3937D01*
X8316Y3905D01*
X8329Y3885D01*
X8378Y3875D01*
X8427Y3864D02*
X8459Y3857D01*
X8479Y3870D01*
X8486Y3903D01*
X8473Y3923D01*
X8441Y3930D01*
X8421Y3917D01*
X8414Y3884D01*
X8427Y3864D01*
X8522Y3912D02*
X8508Y3847D01*
X8515Y3880D01*
X8535Y3893D01*
X8555Y3906D01*
X8571Y3902D01*
X8725Y3904D02*
X8704Y3806D01*
X8714Y3855D01*
X8780Y3841D01*
X8790Y3890D01*
X8769Y3792D01*
X8851Y3775D02*
X8818Y3782D01*
X8805Y3802D01*
X8812Y3834D01*
X8832Y3847D01*
X8864Y3840D01*
X8877Y3821D01*
X8874Y3804D01*
X8809Y3818D01*
X8913Y3830D02*
X8900Y3765D01*
X8907Y3797D01*
X8926Y3810D01*
X8946Y3823D01*
X8962Y3820D01*
X8997Y3744D02*
X9011Y3809D01*
X9028Y3806D01*
X9040Y3786D01*
X9030Y3737D01*
X9040Y3786D01*
X9060Y3799D01*
X9073Y3779D01*
X9063Y3730D01*
X9125Y3785D02*
X9158Y3778D01*
X9171Y3759D01*
X9160Y3710D01*
X9112Y3720D01*
X9099Y3740D01*
X9118Y3753D01*
X9167Y3742D01*
X9193Y3703D02*
X9207Y3768D01*
X9256Y3758D01*
X9269Y3738D01*
X9258Y3689D01*
X9291Y3682D02*
X9324Y3675D01*
X9307Y3679D01*
X9321Y3744D01*
X9305Y3747D01*
X8040Y3727D02*
X7975Y3741D01*
X8054Y3792D01*
X8057Y3808D01*
X8045Y3828D01*
X8012Y3835D01*
X7992Y3822D01*
X8159Y3804D02*
X8094Y3818D01*
X8083Y3769D01*
X8119Y3778D01*
X8136Y3775D01*
X8148Y3755D01*
X8142Y3723D01*
X8122Y3710D01*
X8089Y3717D01*
X8076Y3736D01*
X8171Y3699D02*
X8174Y3716D01*
X8190Y3712D01*
X8187Y3696D01*
X8171Y3699D01*
X8252Y3682D02*
X8285Y3675D01*
X8269Y3679D01*
X8289Y3777D01*
X8269Y3764D01*
X8334Y3665D02*
X8366Y3658D01*
X8350Y3662D01*
X8371Y3759D01*
X8351Y3747D01*
X8415Y3648D02*
X8419Y3664D01*
X8435Y3661D01*
X8432Y3644D01*
X8415Y3648D01*
X8562Y3617D02*
X8497Y3631D01*
X8576Y3682D01*
X8579Y3698D01*
X8566Y3718D01*
X8534Y3725D01*
X8514Y3712D01*
X8612Y3692D02*
X8632Y3704D01*
X8664Y3698D01*
X8677Y3678D01*
X8663Y3613D01*
X8644Y3600D01*
X8611Y3607D01*
X8598Y3626D01*
X8612Y3692D01*
X8758Y3576D02*
X8692Y3589D01*
X8771Y3641D01*
X8775Y3657D01*
X8762Y3677D01*
X8729Y3684D01*
X8710Y3671D01*
X8790Y3569D02*
X8823Y3562D01*
X8807Y3565D01*
X8827Y3663D01*
X8807Y3650D01*
X9247Y2230D02*
X9514D01*
X7332Y2643D02*
X7599D01*
X2445Y2246D02*
X2712D01*
X2579Y2379D02*
Y2112D01*
X4341Y2646D02*
X4608D01*
X4475Y2779D02*
Y2512D01*
X2236Y3687D02*
X2257Y3589D01*
X2306Y3599D01*
X2319Y3619D01*
X2315Y3635D01*
X2295Y3648D01*
X2246Y3638D01*
X2295Y3648D01*
X2308Y3668D01*
X2305Y3684D01*
X2285Y3697D01*
X2236Y3687D01*
X2355Y3609D02*
X2334Y3707D01*
X2420Y3623D01*
X2399Y3721D01*
X2432Y3728D02*
X2446Y3663D01*
X2485Y3637D01*
X2511Y3676D01*
X2497Y3741D01*
X2627Y3769D02*
X2648Y3671D01*
X2697Y3681D01*
X2710Y3701D01*
X2706Y3718D01*
X2687Y3730D01*
X2638Y3720D01*
X2687Y3730D01*
X2699Y3750D01*
X2696Y3766D01*
X2676Y3779D01*
X2627Y3769D01*
X2748Y3760D02*
X2781Y3767D01*
X2801Y3754D01*
X2811Y3706D01*
X2762Y3695D01*
X2742Y3708D01*
X2755Y3728D01*
X2804Y3738D01*
X2843Y3797D02*
X2846Y3781D01*
X2830Y3778D01*
X2863Y3784D01*
X2846Y3781D01*
X2857Y3732D01*
X2876Y3719D01*
X2924Y3815D02*
X2928Y3798D01*
X2911Y3795D01*
X2944Y3802D01*
X2928Y3798D01*
X2938Y3749D01*
X2958Y3736D01*
X3056Y3757D02*
X3023Y3750D01*
X3003Y3763D01*
X2996Y3796D01*
X3009Y3815D01*
X3042Y3822D01*
X3062Y3809D01*
X3065Y3793D01*
X3000Y3779D01*
X3091Y3833D02*
X3105Y3767D01*
X3098Y3800D01*
X3111Y3820D01*
X3123Y3839D01*
X3140Y3843D01*
X3189Y3853D02*
X3199Y3804D01*
X3219Y3791D01*
X3268Y3802D01*
X3271Y3785D01*
X3258Y3766D01*
X3242Y3762D01*
X3268Y3802D02*
X3254Y3867D01*
X3398Y3829D02*
X3377Y3927D01*
X3426Y3937D01*
X3446Y3924D01*
X3453Y3892D01*
X3440Y3872D01*
X3391Y3862D01*
X3498Y3918D02*
X3531Y3925D01*
X3551Y3912D01*
X3561Y3864D01*
X3512Y3853D01*
X3492Y3866D01*
X3505Y3886D01*
X3554Y3896D01*
X3645Y3949D02*
X3596Y3939D01*
X3583Y3919D01*
X3590Y3887D01*
X3610Y3874D01*
X3659Y3884D01*
X3691Y3891D02*
X3671Y3989D01*
X3685Y3924D02*
X3727Y3967D01*
X3685Y3924D02*
X3740Y3901D01*
X3873Y3997D02*
X3920Y3939D01*
X3939Y4011D01*
X3968Y4034D02*
X3981Y4054D01*
X4013Y4061D01*
X4033Y4048D01*
X4047Y3983D01*
X4034Y3963D01*
X4001Y3956D01*
X3981Y3969D01*
X3968Y4034D01*
X4083Y3973D02*
X4079Y3990D01*
X4096Y3993D01*
X4099Y3977D01*
X4083Y3973D01*
X4164Y3991D02*
X4197Y3998D01*
X4181Y3994D01*
X4160Y4092D01*
X4147Y4072D01*
X4246Y4008D02*
X4242Y4024D01*
X4259Y4028D01*
X4262Y4011D01*
X4246Y4008D01*
X4310Y4107D02*
X4323Y4126D01*
X4356Y4133D01*
X4375Y4120D01*
X4389Y4055D01*
X4376Y4035D01*
X4344Y4028D01*
X4324Y4041D01*
X4310Y4107D01*
M02*
