0
SECTION
2
HEADER
9
$INSUNITS
70
4
9
$ACADVER
1
AC1014
9
$HANDSEED
5
FFFF
0
ENDSEC
0
SECTION
2
TABLES
0
TABLE
2
VPORT
5
8
100
AcDbSymbolTable
0
ENDTAB
0
TABLE
2
LTYPE
5
5
100
AcDbSymbolTable
0
LTYPE
5
14
100
AcDbSymbolTableRecord
100
AcDbLinetypeTableRecord
2
BYBLOCK
70
0
0
LTYPE
5
15
100
AcDbSymbolTableRecord
100
AcDbLinetypeTableRecord
2
BYLAYER
70
0
0
ENDTAB
0
TABLE
2
LAYER
5
2
100
AcDbSymbolTable
70
2
0
LAYER
5
50
100
AcDbSymbolTableRecord
100
AcDbLayerTableRecord
2
0
70
0
6
CONTINUOUS
0
ENDTAB
0
TABLE
2
STYLE
5
3
100
AcDbSymbolTable
70
1
0
STYLE
5
11
100
AcDbSymbolTableRecord
100
AcDbTextStyleTableRecord
2
STANDARD
70
0
0
ENDTAB
0
TABLE
2
VIEW
5
6
100
AcDbSymbolTable
70
0
0
ENDTAB
0
TABLE
2
UCS
5
7
100
AcDbSymbolTable
70
0
0
ENDTAB
0
TABLE
2
APPID
5
9
100
AcDbSymbolTable
70
2
0
APPID
5
12
100
AcDbSymbolTableRecord
100
AcDbRegAppTableRecord
2
ACAD
70
0
0
ENDTAB
0
TABLE
2
DIMSTYLE
5
A
100
AcDbSymbolTable
70
1
0
ENDTAB
0
TABLE
2
BLOCK_RECORD
5
1
100
AcDbSymbolTable
70
1
0
BLOCK_RECORD
5
1F
100
AcDbSymbolTableRecord
100
AcDbBlockTableRecord
2
*MODEL_SPACE
0
BLOCK_RECORD
5
1B
100
AcDbSymbolTableRecord
100
AcDbBlockTableRecord
2
*PAPER_SPACE
0
ENDTAB
0
ENDSEC
0
SECTION
2
BLOCKS
0
BLOCK
5
20
100
AcDbEntity
100
AcDbBlockBegin
2
*MODEL_SPACE
0
ENDBLK
5
21
100
AcDbEntity
100
AcDbBlockEnd
0
BLOCK
5
1C
100
AcDbEntity
100
AcDbBlockBegin
2
*PAPER_SPACE
0
ENDBLK
5
1D
100
AcDbEntity
100
AcDbBlockEnd
0
ENDSEC
0
SECTION
2
ENTITIES
0
LWPOLYLINE
5
100
100
AcDbEntity
8
0
100
AcDbPolyline
90
16
70
1
43
0.0
10
28.527510087412935
20
11.765426849609291
42
-1.5190200810577912
10
32.122906793894103
20
-5.3127075061762312
10
25.769933894142021
20
-4.0321859971746026
10
20.472489912587065
20
-7.7654268496092849
42
-0.304825366928764
10
9.8765246170202037
20
-8.0000000000000053
10
-9.8765246170201983
20
-7.9999999999999964
42
-0.30482536692876838
10
-20.472489912587058
20
-7.7654268496092964
10
-25.769933894142021
20
-4.0321859971746026
10
-32.122906793894089
20
-5.3127075061762277
42
-1.5190200810577918
10
-28.527510087412942
20
11.765426849609293
10
-23.230066105857983
20
8.0321859971746008
10
-16.877093206105901
20
9.3127075061762365
42
-0.19452924078203515
10
-9.8765246170202019
20
8.0000000000000018
10
9.8765246170202072
20
7.9999999999999876
42
-0.19452924078203815
10
16.877093206105904
20
9.3127075061762277
10
23.230066105857979
20
8.0321859971746008
0
ARC
5
101
100
AcDbEntity
8
0
100
AcDbCircle
10
-15
20
0
30
-5.5511151231257827e-16
40
9.5
210
-0
220
0
230
1
100
AcDbArc
50
-31.75686385929712
51
31.756863859297109
0
ARC
5
102
100
AcDbEntity
8
0
100
AcDbCircle
10
15
20
0
30
-5.5511151231257827e-16
40
9.5000000000000018
210
0
220
0
230
1
100
AcDbArc
50
148.24313614070289
51
211.75686385929708
0
ARC
5
103
100
AcDbEntity
8
0
100
AcDbCircle
10
33.999999999999993
20
4.0000000000000027
30
0
40
9.5000000000000036
210
0
220
0
230
1
100
AcDbArc
50
-101.39599149452938
51
125.17330757378539
0
ARC
5
104
100
AcDbEntity
8
0
100
AcDbCircle
10
-33.999999999999993
20
3.9999999999999982
30
0
40
9.4999999999999982
210
0
220
-0
230
1
100
AcDbArc
50
54.826692426214649
51
281.39599149452937
0
LWPOLYLINE
5
105
100
AcDbEntity
8
0
100
AcDbPolyline
90
10
70
1
43
0.0
10
-17.163110051023342
20
-10.27477274236087
10
-44.480783223410754
20
-4.5236836534372173
42
-0.4142135623730942
10
-46.025861831284558
20
-2.1545631213640171
10
-41.562587004207685
20
19.045992307250934
42
0.24170757961322156
10
41.562587004207678
20
19.045992307250899
10
44.274772742360859
20
6.1631100510233416
42
-0.41421356237309415
10
36.163110051023367
20
-6.2747727423608595
10
17.163110051023331
20
-10.274772742360865
42
-0.051920636352893977
10
15.000000000000009
20
-10.499999999999996
10
-15.000000000000027
20
-10.500000000000005
42
-0.051920636352894532
0
CIRCLE
5
106
100
AcDbEntity
8
0
100
AcDbCircle
10
-33.999999999999993
20
3.9999999999999982
30
0
40
9.4999999999999982
210
0
220
0
230
1
0
CIRCLE
5
107
100
AcDbEntity
8
0
100
AcDbCircle
10
-15
20
0
30
-5.5511151231257827e-16
40
9.5000000000000018
210
0
220
0
230
1
0
CIRCLE
5
108
100
AcDbEntity
8
0
100
AcDbCircle
10
15
20
0
30
-5.5511151231257827e-16
40
9.5000000000000036
210
0
220
0
230
1
0
CIRCLE
5
109
100
AcDbEntity
8
0
100
AcDbCircle
10
33.999999999999993
20
3.9999999999999991
30
0
40
9.5
210
0
220
0
230
1
0
ENDSEC
0
SECTION
2
OBJECTS
0
DICTIONARY
5
C
100
AcDbDictionary
3
ACAD_GROUP
350
D
3
ACAD_MLINESTYLE
350
17
0
DICTIONARY
5
D
100
AcDbDictionary
0
DICTIONARY
5
1A
330
C
100
AcDbDictionary
0
DICTIONARY
5
17
100
AcDbDictionary
0
ENDSEC
0
EOF
