0
SECTION
2
HEADER
9
$INSUNITS
70
4
9
$ACADVER
1
AC1014
9
$HANDSEED
5
FFFF
0
ENDSEC
0
SECTION
2
TABLES
0
TABLE
2
VPORT
5
8
100
AcDbSymbolTable
0
ENDTAB
0
TABLE
2
LTYPE
5
5
100
AcDbSymbolTable
0
LTYPE
5
14
100
AcDbSymbolTableRecord
100
AcDbLinetypeTableRecord
2
BYBLOCK
70
0
0
LTYPE
5
15
100
AcDbSymbolTableRecord
100
AcDbLinetypeTableRecord
2
BYLAYER
70
0
0
ENDTAB
0
TABLE
2
LAYER
5
2
100
AcDbSymbolTable
70
2
0
LAYER
5
50
100
AcDbSymbolTableRecord
100
AcDbLayerTableRecord
2
0
70
0
6
CONTINUOUS
0
ENDTAB
0
TABLE
2
STYLE
5
3
100
AcDbSymbolTable
70
1
0
STYLE
5
11
100
AcDbSymbolTableRecord
100
AcDbTextStyleTableRecord
2
STANDARD
70
0
0
ENDTAB
0
TABLE
2
VIEW
5
6
100
AcDbSymbolTable
70
0
0
ENDTAB
0
TABLE
2
UCS
5
7
100
AcDbSymbolTable
70
0
0
ENDTAB
0
TABLE
2
APPID
5
9
100
AcDbSymbolTable
70
2
0
APPID
5
12
100
AcDbSymbolTableRecord
100
AcDbRegAppTableRecord
2
ACAD
70
0
0
ENDTAB
0
TABLE
2
DIMSTYLE
5
A
100
AcDbSymbolTable
70
1
0
ENDTAB
0
TABLE
2
BLOCK_RECORD
5
1
100
AcDbSymbolTable
70
1
0
BLOCK_RECORD
5
1F
100
AcDbSymbolTableRecord
100
AcDbBlockTableRecord
2
*MODEL_SPACE
0
BLOCK_RECORD
5
1B
100
AcDbSymbolTableRecord
100
AcDbBlockTableRecord
2
*PAPER_SPACE
0
ENDTAB
0
ENDSEC
0
SECTION
2
BLOCKS
0
BLOCK
5
20
100
AcDbEntity
100
AcDbBlockBegin
2
*MODEL_SPACE
0
ENDBLK
5
21
100
AcDbEntity
100
AcDbBlockEnd
0
BLOCK
5
1C
100
AcDbEntity
100
AcDbBlockBegin
2
*PAPER_SPACE
0
ENDBLK
5
1D
100
AcDbEntity
100
AcDbBlockEnd
0
ENDSEC
0
SECTION
2
ENTITIES
0
CIRCLE
5
100
100
AcDbEntity
8
0
100
AcDbCircle
10
-39.25
20
13.75
30
0
40
1.6999999999999993
210
0
220
-0
230
1
0
CIRCLE
5
101
100
AcDbEntity
8
0
100
AcDbCircle
10
39.25
20
13.75
30
0
40
1.7000000000000037
210
0
220
-0
230
1
0
CIRCLE
5
102
100
AcDbEntity
8
0
100
AcDbCircle
10
0
20
0
30
0
40
6.0000000000000009
210
0
220
-0
230
1
0
LWPOLYLINE
5
103
100
AcDbEntity
8
0
100
AcDbPolyline
90
12
70
1
43
0.0
10
43.29622295737412
20
5.9570995699735025
10
41.286854933462813
20
15.50159768355218
42
0.45904848963237327
10
39.957798147184832
20
16.232147313784981
42
-0.18099464057370981
10
-39.957798147188022
20
16.232147313771705
42
0.45904848963223882
10
-41.286854933465627
20
15.501597683538723
10
-43.29622295737412
20
5.9570995699734919
42
0.4142135623730942
10
-35.957099569973494
20
-5.2962229573741233
10
-16.957099569973483
20
-9.2962229573741233
42
0.051920636352894935
10
-15.000000000000007
20
-9.5000000000000036
10
15.000000000000002
20
-9.5000000000000107
42
0.051920636352894664
10
16.957099569973497
20
-9.2962229573741233
10
35.957099569973508
20
-5.296222957374118
42
0.4142135623730942
0
LWPOLYLINE
5
104
100
AcDbEntity
8
0
100
AcDbPolyline
90
12
70
1
43
0.0
10
-35.936498521868508
20
-5.1983679788754555
42
-0.41421356237309415
10
-43.198367978875453
20
5.9364985218685087
10
-41.18899995496696
20
15.480996635433739
42
-0.45904848963223921
10
-39.992848847317106
20
16.138491302643434
42
0.18099464057370981
10
39.992848847313951
20
16.138491302656721
42
-0.45904848963237499
10
41.188999954964132
20
15.480996635447195
10
43.198367978875453
20
5.9364985218685229
42
-0.4142135623730942
10
35.936498521868522
20
-5.1983679788754422
10
16.936498521868518
20
-9.1983679788754493
42
-0.051920636352894754
10
15.000000000000002
20
-9.400000000000011
10
-15.000000000000002
20
-9.4000000000000039
42
-0.051920636352894976
10
-16.936498521868501
20
-9.1983679788754475
0
CIRCLE
5
105
100
AcDbEntity
8
0
100
AcDbCircle
10
0
20
0
30
0
40
6.1000000000000014
210
0
220
-0
230
1
0
CIRCLE
5
106
100
AcDbEntity
8
0
100
AcDbCircle
10
-33.999999999999979
20
4.000000000000008
30
0
40
9
210
0
220
0
230
1
0
CIRCLE
5
107
100
AcDbEntity
8
0
100
AcDbCircle
10
-15.000000000000007
20
-4.4408920985006262e-14
30
0
40
9
210
0
220
0
230
1
0
CIRCLE
5
108
100
AcDbEntity
8
0
100
AcDbCircle
10
14.999999999999991
20
8.8817841970012523e-14
30
0
40
9
210
0
220
0
230
1
0
CIRCLE
5
109
100
AcDbEntity
8
0
100
AcDbCircle
10
33.999999999999993
20
4.0000000000000169
30
0
40
9
210
0
220
0
230
1
0
ENDSEC
0
SECTION
2
OBJECTS
0
DICTIONARY
5
C
100
AcDbDictionary
3
ACAD_GROUP
350
D
3
ACAD_MLINESTYLE
350
17
0
DICTIONARY
5
D
100
AcDbDictionary
0
DICTIONARY
5
1A
330
C
100
AcDbDictionary
0
DICTIONARY
5
17
100
AcDbDictionary
0
ENDSEC
0
EOF
